<svg width="40" height="40" viewBox="0 0 40 40" fill="none" xmlns="http://www.w3.org/2000/svg">
<path fill-rule="evenodd" clip-rule="evenodd" d="M5.08657 16.2332L2.47324 30.1915C2.31491 31.0448 2.54324 31.9248 3.09657 32.5915C3.65157 33.2598 4.47324 33.6465 5.34157 33.6448H9.46824C9.01824 33.1015 8.68991 32.4482 8.52991 31.7232L5.08657 16.2332Z" fill="#52704E"/>
<path fill-rule="evenodd" clip-rule="evenodd" d="M22.9466 7.87988L23.9849 12.4632C24.1366 13.1366 24.8066 13.5582 25.4799 13.4066C26.1516 13.2549 26.5749 12.5849 26.4232 11.9116L25.3866 7.32822C25.2332 6.65488 24.5632 6.23322 23.8916 6.38488C23.2182 6.53655 22.7949 7.20655 22.9466 7.87988Z" fill="#52704E"/>
<path fill-rule="evenodd" clip-rule="evenodd" d="M12.1133 7.87988L13.1516 12.4632C13.3033 13.1366 13.9733 13.5582 14.6466 13.4066C15.3183 13.2549 15.7416 12.5849 15.59 11.9116L14.5533 7.32822C14.4 6.65488 13.73 6.23322 13.0583 6.38488C12.385 6.53655 11.9616 7.20655 12.1133 7.87988Z" fill="#52704E"/>
<path fill-rule="evenodd" clip-rule="evenodd" d="M34.8915 18.6448H7.32987L10.1565 31.3614C10.4532 32.6964 11.6365 33.6464 13.0032 33.6448H34.5882C35.4732 33.6448 36.3099 33.2448 36.8632 32.5548C37.4182 31.8631 37.6282 30.9598 37.4365 30.0964L34.8915 18.6448ZM13.5682 8.64478H8.74487C7.85987 8.64644 7.0232 9.04644 6.46987 9.73644C5.91487 10.4281 5.70487 11.3314 5.89653 12.1948L6.77487 16.1448H34.3365L33.1765 10.9298C32.8799 9.59478 31.6965 8.64478 30.3299 8.64478H27.3932L28.0482 11.5431C28.4032 13.1131 27.4165 14.6764 25.8465 15.0314L24.4015 8.64478H16.5599L17.2149 11.5431C17.5699 13.1131 16.5832 14.6764 15.0132 15.0314L13.5682 8.64478Z" fill="#52704E"/>
</svg>
