<svg width="40" height="40" viewBox="0 0 40 40" fill="none" xmlns="http://www.w3.org/2000/svg">
<path d="M19.9999 0C12.012 0 5.51343 6.49859 5.51343 14.4864C5.51343 24.3995 18.4774 38.9526 19.0294 39.5673C19.5478 40.1447 20.453 40.1437 20.9705 39.5673C21.5224 38.9526 34.4864 24.3995 34.4864 14.4864C34.4862 6.49859 27.9877 0 19.9999 0ZM19.9999 21.7749C15.981 21.7749 12.7115 18.5053 12.7115 14.4864C12.7115 10.4675 15.9811 7.19797 19.9999 7.19797C24.0187 7.19797 27.2883 10.4676 27.2883 14.4865C27.2883 18.5054 24.0187 21.7749 19.9999 21.7749Z" fill="#52704E"/>
</svg>
