<svg width="224" height="49" viewBox="0 0 224 49" fill="none" xmlns="http://www.w3.org/2000/svg">
<path d="M71.5067 44.8658C68.5896 42.0719 67.131 38.8261 67.131 35.1284C67.131 31.4307 68.4869 28.3903 71.1985 26.0074C73.2939 24.1174 75.718 22.3507 78.4707 20.7073C74.8963 16.3111 73.109 12.4696 73.109 9.18269C73.109 6.8408 74.1773 4.72488 76.3137 2.83493C78.4913 0.944976 81.1413 0 84.2638 0C87.3864 0 89.5639 0.287601 90.7965 0.862803C92.0291 1.39692 92.6454 2.23918 92.6454 3.38958C92.6454 5.44388 91.8853 8.05283 90.3651 11.2164L88.2697 10.7234C88.4751 9.49083 88.5779 8.64858 88.5779 8.19663C88.5779 5.15628 86.9344 3.6361 83.6476 3.6361C82.2095 3.6361 80.977 4.08804 79.9498 4.99193C78.9638 5.85473 78.4707 7.06677 78.4707 8.62803C78.4707 10.9288 80.1963 14.3595 83.6476 18.92C87.0988 23.4806 91.6798 28.3492 97.3908 33.5261C99.6094 29.4175 100.719 25.4938 100.719 21.755C100.719 20.2759 100.39 19.2898 99.7327 18.7968C99.0753 18.2627 97.8838 17.934 96.1582 17.8107V15.777C97.6784 15.9002 99.8765 15.9619 102.752 15.9619C105.67 15.9619 107.909 15.9002 109.47 15.777V17.8107C106.265 18.0162 104.458 19.4747 104.047 22.1864C103.841 23.3779 103.369 25.2473 102.629 27.7946C101.89 30.3419 100.842 32.8892 99.4862 35.4366C103.266 38.7234 107.375 41.9692 111.812 45.1739V47.2077C108.443 47.2077 105.711 47.2898 103.615 47.4542L96.528 39.9971C95.0078 41.9692 93.2206 43.6537 91.1663 45.0506L89.1941 46.4065C88.0848 47.1871 87.0371 47.7007 86.0511 47.9472C85.065 48.1937 83.3394 48.317 80.8743 48.317C78.4502 48.317 76.704 48.1321 75.6358 47.7623C74.5676 47.4336 73.1912 46.4681 71.5067 44.8658ZM73.2323 33.5877C73.2323 36.2994 74.2389 38.6413 76.2521 40.6134C78.2653 42.5855 80.6483 43.5716 83.401 43.5716C87.5507 43.5716 91.2484 41.6611 94.4942 37.8401L80.3196 22.8027C75.5947 25.8019 73.2323 29.3969 73.2323 33.5877Z" fill="#DC580C" fill-opacity="0.5"/>
<path d="M58.2222 24.625C59.3588 24.625 60.4225 24.7561 61.4133 25.0184C62.4333 25.2516 63.2055 25.5138 63.7301 25.8053C64.0507 25.9801 64.3129 26.0675 64.5169 26.0675C65.1289 26.0675 65.4932 25.6013 65.6098 24.6687H66.4841C66.3675 26.1841 66.3092 28.8069 66.3092 32.5371H65.4349C65.2018 30.6137 64.6481 28.9964 63.7738 27.6849C62.9287 26.3444 61.6901 25.6741 60.0582 25.6741C59.3296 25.6741 58.7176 25.8927 58.2222 26.3298C57.7268 26.767 57.4791 27.3644 57.4791 28.1221C57.4791 29.0838 57.7996 29.9435 58.4408 30.7012C59.0819 31.4297 60.0873 32.3331 61.457 33.4114C61.5153 33.4405 61.9379 33.7757 62.7247 34.4168C64.3567 35.7574 65.5515 36.9522 66.3092 38.0013C67.0669 39.0213 67.4457 40.289 67.4457 41.8044C67.4457 43.0867 67.0523 44.2523 66.2655 45.3015C65.4786 46.3214 64.4004 47.1229 63.0307 47.7057C61.6901 48.2594 60.2185 48.5363 58.6156 48.5363C56.7797 48.5363 55.2788 48.172 54.1131 47.4434C53.6177 47.1811 53.2097 46.9917 52.8892 46.8751C52.5686 46.7586 52.248 46.7003 51.9275 46.7003C51.3738 46.7003 50.9658 47.2103 50.7035 48.2303H49.8292C49.9458 46.5692 50.0041 43.6549 50.0041 39.4876H50.8784C51.1406 41.8772 51.7818 43.8006 52.8017 45.2578C53.8217 46.7149 55.104 47.4434 56.6485 47.4434C57.3771 47.4434 57.9745 47.2394 58.4408 46.8314C58.9362 46.4234 59.1839 45.826 59.1839 45.0392C59.1839 44.2232 59.0091 43.4946 58.6593 42.8535C58.3388 42.2124 57.9308 41.6441 57.4354 41.1487C56.9691 40.6241 56.1968 39.881 55.1186 38.9193C53.8946 37.7828 52.962 36.8793 52.3209 36.2091C51.6798 35.5388 51.1261 34.7665 50.6598 33.8923C50.2226 32.9888 50.0041 31.998 50.0041 30.9197C50.0041 29.6666 50.3829 28.5592 51.1406 27.5975C51.8983 26.6358 52.9037 25.9073 54.1569 25.4118C55.41 24.8873 56.7651 24.625 58.2222 24.625Z" fill="#52704E"/>
<path d="M40.6962 43.7715C42.8236 43.7715 44.5867 42.7952 45.9855 40.8427L46.7286 41.105C46.0875 43.1449 44.9947 44.8935 43.4501 46.3506C41.9347 47.8077 39.9822 48.5363 37.5925 48.5363C34.5326 48.5363 32.0846 47.5891 30.2487 45.6949C28.4127 43.8006 27.4947 40.7698 27.4947 36.6025C27.4947 32.61 28.5147 29.6229 30.5547 27.6412C32.6238 25.6304 35.3486 24.625 38.7291 24.625C44.237 24.625 46.9909 27.8889 46.9909 34.4168H35.7129C35.6837 34.7665 35.6691 35.2911 35.6691 35.9905C35.6691 38.7882 36.15 40.7844 37.1117 41.9792C38.1025 43.1741 39.2974 43.7715 40.6962 43.7715ZM38.4231 25.6304C36.7911 25.6304 35.8294 28.2824 35.538 33.5863H40.6088C40.6379 31.2549 40.4631 29.3461 40.0842 27.8598C39.7345 26.3735 39.1808 25.6304 38.4231 25.6304Z" fill="#52704E"/>
<path d="M15.5183 17.8494C14.4691 17.9077 13.6969 18.0243 13.2015 18.1991C12.7352 18.374 12.4146 18.7091 12.2398 19.2045C12.0649 19.7 11.9775 20.5014 11.9775 21.6088V44.1649C11.9775 44.9809 12.0358 45.5783 12.1523 45.9572C12.2689 46.336 12.4729 46.5983 12.7643 46.744C13.0557 46.8606 13.5366 46.9189 14.2069 46.9189H15.6494C16.6694 46.9189 17.7768 46.4089 18.9716 45.3889C20.1665 44.3689 21.2447 43.0284 22.2064 41.3673C23.1681 39.677 23.8093 37.9285 24.1298 36.1216H25.1352C25.0478 37.1708 25.0041 38.5113 25.0041 40.1433C25.0041 43.2906 25.1061 45.8843 25.3101 47.9243C23.3284 47.8368 19.9916 47.7931 15.2997 47.7931C8.48041 47.7931 3.38051 47.8368 0 47.9243V47.05C0.932554 46.9917 1.60283 46.8751 2.01082 46.7003C2.44795 46.5254 2.73938 46.1903 2.88509 45.6949C3.0308 45.1995 3.10365 44.3981 3.10365 43.2906V21.6088C3.10365 20.5014 3.01623 19.7 2.84137 19.2045C2.69566 18.7091 2.41881 18.374 2.01082 18.1991C1.60283 18.0243 0.932554 17.9077 0 17.8494V16.9752C1.66111 17.0626 4.25478 17.1063 7.78099 17.1063C11.1324 17.1063 13.7115 17.0626 15.5183 16.9752V17.8494Z" fill="#52704E"/>
<path d="M207.695 47.872C205.83 47.872 204.416 47.3765 203.455 46.3857C202.522 45.3657 202.056 44.098 202.056 42.5826C202.056 41.2712 202.391 40.193 203.061 39.3478C203.761 38.4736 204.577 37.8033 205.509 37.337C206.442 36.8707 207.651 36.3899 209.137 35.8945C210.711 35.3699 211.862 34.8891 212.591 34.4519C213.319 34.0148 213.684 33.4028 213.684 32.616V28.7255C213.684 27.7929 213.45 26.9624 212.984 26.2338C212.518 25.5052 211.717 25.141 210.58 25.141C209.677 25.141 208.861 25.3887 208.132 25.8841C209.123 26.2338 209.851 26.7584 210.318 27.4578C210.813 28.1281 211.061 28.8858 211.061 29.7309C211.061 30.8674 210.653 31.7854 209.837 32.4848C209.05 33.1551 208.088 33.4902 206.952 33.4902C205.815 33.4902 204.912 33.1405 204.242 32.4411C203.6 31.7126 203.28 30.7946 203.28 29.6872C203.28 28.8129 203.498 28.0552 203.936 27.4141C204.373 26.7729 205.058 26.1901 205.99 25.6655C207.622 24.733 209.953 24.2667 212.984 24.2667C214.587 24.2667 215.971 24.427 217.137 24.7475C218.303 25.039 219.294 25.6072 220.11 26.4524C220.692 27.0644 221.071 27.8366 221.246 28.7692C221.45 29.6726 221.552 30.9403 221.552 32.5723V44.2875C221.552 45.016 221.596 45.5114 221.683 45.7737C221.8 46.036 221.989 46.1671 222.251 46.1671C222.455 46.1671 222.674 46.1089 222.907 45.9923C223.14 45.8466 223.359 45.6863 223.563 45.5114L224 46.2546C222.747 47.3328 220.955 47.872 218.623 47.872C216.875 47.872 215.651 47.5805 214.951 46.9977C214.252 46.3857 213.873 45.5697 213.815 44.5497C212.445 46.7646 210.405 47.872 207.695 47.872ZM212.066 44.3749C212.678 44.3749 213.217 44.1272 213.684 43.6318V34.4082C213.421 34.8454 212.94 35.4136 212.241 36.113C211.454 36.8707 210.857 37.6139 210.449 38.3424C210.041 39.0418 209.837 40.0035 209.837 41.2275C209.837 43.3258 210.58 44.3749 212.066 44.3749Z" fill="#52704E"/>
<path d="M197.854 43.5006C197.854 44.6954 198.029 45.526 198.378 45.9923C198.757 46.4294 199.398 46.648 200.302 46.648V47.566C197.154 47.4494 195.085 47.3911 194.095 47.3911C193.104 47.3911 190.918 47.4494 187.538 47.566V46.648C188.441 46.648 189.068 46.4294 189.417 45.9923C189.796 45.526 189.985 44.6954 189.985 43.5006V18.6277C189.985 17.2871 189.796 16.3109 189.417 15.6989C189.068 15.0869 188.441 14.7809 187.538 14.7809V13.8629C188.441 13.9503 189.344 13.994 190.248 13.994C193.279 13.994 195.814 13.79 197.854 13.382V43.5006Z" fill="#52704E"/>
<path d="M174.581 24.2667C178.165 24.2667 180.934 25.2138 182.886 27.1081C184.839 28.9732 185.815 32.0185 185.815 36.2442C185.815 40.4698 184.839 43.5152 182.886 45.3803C180.934 47.2454 178.165 48.1779 174.581 48.1779C170.996 48.1779 168.228 47.2454 166.275 45.3803C164.322 43.5152 163.346 40.4698 163.346 36.2442C163.346 32.0185 164.322 28.9732 166.275 27.1081C168.228 25.2138 170.996 24.2667 174.581 24.2667ZM174.581 25.141C173.648 25.141 172.905 26.0589 172.351 27.8949C171.797 29.7309 171.521 32.514 171.521 36.2442C171.521 39.9744 171.797 42.7575 172.351 44.5935C172.905 46.4003 173.648 47.3037 174.581 47.3037C175.513 47.3037 176.256 46.4003 176.81 44.5935C177.364 42.7575 177.641 39.9744 177.641 36.2442C177.641 32.514 177.364 29.7309 176.81 27.8949C176.256 26.0589 175.513 25.141 174.581 25.141Z" fill="#52704E"/>
<path d="M145.369 47.872C143.504 47.872 142.091 47.3765 141.129 46.3857C140.196 45.3657 139.73 44.098 139.73 42.5826C139.73 41.2712 140.065 40.193 140.735 39.3478C141.435 38.4736 142.251 37.8033 143.183 37.337C144.116 36.8707 145.325 36.3899 146.812 35.8945C148.385 35.3699 149.536 34.8891 150.265 34.4519C150.994 34.0148 151.358 33.4028 151.358 32.616V28.7255C151.358 27.7929 151.125 26.9624 150.658 26.2338C150.192 25.5052 149.391 25.141 148.254 25.141C147.351 25.141 146.535 25.3887 145.806 25.8841C146.797 26.2338 147.526 26.7584 147.992 27.4578C148.487 28.1281 148.735 28.8858 148.735 29.7309C148.735 30.8674 148.327 31.7854 147.511 32.4848C146.724 33.1551 145.763 33.4902 144.626 33.4902C143.489 33.4902 142.586 33.1405 141.916 32.4411C141.275 31.7126 140.954 30.7946 140.954 29.6872C140.954 28.8129 141.173 28.0552 141.61 27.4141C142.047 26.7729 142.732 26.1901 143.664 25.6655C145.296 24.733 147.628 24.2667 150.658 24.2667C152.261 24.2667 153.645 24.427 154.811 24.7475C155.977 25.039 156.968 25.6072 157.784 26.4524C158.367 27.0644 158.745 27.8366 158.92 28.7692C159.124 29.6726 159.226 30.9403 159.226 32.5723V44.2875C159.226 45.016 159.27 45.5114 159.357 45.7737C159.474 46.036 159.663 46.1671 159.926 46.1671C160.13 46.1671 160.348 46.1089 160.581 45.9923C160.815 45.8466 161.033 45.6863 161.237 45.5114L161.674 46.2546C160.421 47.3328 158.629 47.872 156.297 47.872C154.549 47.872 153.325 47.5805 152.626 46.9977C151.926 46.3857 151.547 45.5697 151.489 44.5497C150.119 46.7646 148.079 47.872 145.369 47.872ZM149.74 44.3749C150.352 44.3749 150.892 44.1272 151.358 43.6318V34.4082C151.096 34.8454 150.615 35.4136 149.915 36.113C149.128 36.8707 148.531 37.6139 148.123 38.3424C147.715 39.0418 147.511 40.0035 147.511 41.2275C147.511 43.3258 148.254 44.3749 149.74 44.3749Z" fill="#52704E"/>
<path d="M122.984 35.0639V42.4952C122.984 43.7192 123.101 44.608 123.334 45.1617C123.596 45.7154 124.048 46.0943 124.689 46.2983C125.359 46.4731 126.408 46.5606 127.836 46.5606V47.566C123.902 47.4785 120.9 47.4348 118.831 47.4348C117.462 47.4348 115.553 47.464 113.105 47.5223L111.007 47.566V46.6917C111.939 46.6334 112.609 46.5168 113.017 46.342C113.455 46.1671 113.746 45.832 113.892 45.3366C114.037 44.8412 114.11 44.0397 114.11 42.9323V21.2505C114.11 20.1431 114.023 19.3416 113.848 18.8462C113.702 18.3508 113.425 18.0157 113.017 17.8408C112.609 17.666 111.939 17.5494 111.007 17.4911V16.6168C112.668 16.7043 115.174 16.748 118.525 16.748L123.552 16.7043C124.135 16.6751 124.805 16.6606 125.563 16.6606C129.876 16.6606 133.14 17.4474 135.355 19.0211C137.599 20.5656 138.721 22.6493 138.721 25.2721C138.721 26.8749 138.284 28.4195 137.409 29.9057C136.535 31.3628 135.049 32.5868 132.951 33.5777C130.852 34.5685 128.069 35.0639 124.601 35.0639H122.984ZM125.345 17.4911C124.674 17.4911 124.164 17.5931 123.815 17.7971C123.494 18.0011 123.275 18.3654 123.159 18.8899C123.042 19.4145 122.984 20.2013 122.984 21.2505V34.1897H124.164C126.204 34.1897 127.603 33.4319 128.361 31.9166C129.148 30.4012 129.541 28.3466 129.541 25.753C129.541 22.9262 129.22 20.8425 128.579 19.5019C127.938 18.1614 126.86 17.4911 125.345 17.4911Z" fill="#52704E"/>
<path d="M102.982 8.08067C102.982 8.08067 102.253 5.47019 100.33 5.65325C98.4059 5.83631 97.9737 9.84091 102.765 13.1685C107.678 11.3455 107.425 8.18657 107.009 7.32272C106.44 6.13964 103.929 5.60332 102.982 8.08067Z" fill="#F36B6C"/>
</svg>
